<?xml version="1.0" encoding="UTF-8" standalone="no"?>
<svg
   xmlns:dc="http://purl.org/dc/elements/1.1/"
   xmlns:cc="http://creativecommons.org/ns#"
   xmlns:rdf="http://www.w3.org/1999/02/22-rdf-syntax-ns#"
   xmlns:svg="http://www.w3.org/2000/svg"
   xmlns="http://www.w3.org/2000/svg"
   height="480"
   width="480"
   xml:space="preserve"
   viewBox="0 0 480.00001 480.00001"
   y="0px"
   x="0px"
   id="Capa_1"
   version="1.1"><metadata
     id="metadata85"><rdf:RDF><cc:Work
         rdf:about=""><dc:format>image/svg+xml</dc:format><dc:type
           rdf:resource="http://purl.org/dc/dcmitype/StillImage" /><dc:title></dc:title></cc:Work></rdf:RDF></metadata><defs
     id="defs83" /><g
     style="fill:#19599c;fill-opacity:1"
     transform="matrix(0.6678963,0,0,0.6678963,71.278708,31.242078)"
     id="g3"><g
       style="fill:#19599c;fill-opacity:1"
       id="g5"><g
         style="fill:#19599c;fill-opacity:1"
         id="g7"><rect
           id="rect9"
           height="44.695"
           width="44.673"
           style="fill:#19599c;fill-opacity:1"
           y="254.33"
           x="72.758003" /><rect
           id="rect11"
           height="44.652"
           width="44.673"
           style="fill:#19599c;fill-opacity:1"
           y="324.996"
           x="72.758003" /><rect
           id="rect13"
           height="44.673"
           width="44.673"
           style="fill:#19599c;fill-opacity:1"
           y="183.621"
           x="147.63" /><rect
           id="rect15"
           height="44.695"
           width="44.673"
           style="fill:#19599c;fill-opacity:1"
           y="254.33"
           x="147.63" /><rect
           id="rect17"
           height="44.652"
           width="44.673"
           style="fill:#19599c;fill-opacity:1"
           y="324.996"
           x="147.63" /><path
           id="path19"
           d="m 415.842,190.049 0,-130.33 c 0,-17.3 -14.129,-31.429 -31.429,-31.429 l -352.984,0 C 14.129,28.29 0,42.419 0,59.719 l 0,352.963 c 0,17.3 14.129,31.429 31.429,31.429 l 230.398,0 c 25.626,20.514 58.09,32.831 93.466,32.831 82.789,0 149.939,-67.085 149.939,-149.874 -0.023,-61.197 -36.801,-113.744 -89.39,-137.019 z M 136.219,59.158 l 143.273,0 0,37.037 -143.273,0 0,-37.037 z m -97.607,72.413 338.575,0 0,47.413 c -7.162,-1.057 -14.452,-1.79 -21.916,-1.79 -32.982,0 -63.375,10.785 -88.138,28.84 l 0,-22.434 -44.652,0 0,44.673 20.298,0 c -23.189,26.381 -37.339,60.894 -37.339,98.794 0,27.05 7.269,52.352 19.78,74.247 l -186.608,0 0,-269.743 z m 302.918,73.405 c 0,-7.614 6.191,-13.719 13.741,-13.719 7.636,0 13.741,6.105 13.762,13.719 0,7.593 -6.126,13.741 -13.762,13.741 -7.528,0 -13.741,-6.148 -13.741,-13.741 z m -94.588,122.113 c 0,7.614 -6.126,13.784 -13.762,13.784 -7.614,0 -13.741,-6.169 -13.741,-13.784 0,-7.615 6.126,-13.719 13.741,-13.719 7.615,0 13.741,6.104 13.762,13.719 z m 108.329,135.852 c -7.55,0 -13.741,-6.126 -13.741,-13.697 0,-7.636 6.191,-13.805 13.741,-13.805 7.636,0 13.741,6.148 13.762,13.805 0,7.55 -6.126,13.697 -13.762,13.697 z m 83.22,-197.825 -57.529,57.443 c 0.388,1.769 1.079,3.408 1.079,5.285 0,14.905 -12.101,27.007 -27.007,27.007 -14.388,0 -25.907,-11.368 -26.683,-25.605 l -61.11,-47.477 c -5.285,-4.142 -6.536,-11.432 -2.696,-16.307 3.818,-4.94 11.238,-5.544 16.523,-1.402 L 337,307.589 c 4.832,-4.53 11.217,-7.42 18.314,-7.42 4.702,0 8.887,1.51 12.727,3.624 l 54.509,-54.574 c 5.091,-5.069 12.791,-5.565 17.106,-1.186 4.335,4.356 3.839,11.992 -1.165,17.083 z m 38.87,75.735 c -7.593,0 -13.741,-6.169 -13.741,-13.784 0,-7.615 6.148,-13.719 13.741,-13.719 7.615,0 13.784,6.105 13.784,13.719 0,7.614 -6.148,13.784 -13.784,13.784 z"
           style="fill:#19599c;fill-opacity:1" /></g></g><g
       style="fill:#19599c;fill-opacity:1"
       id="g21" /><g
       style="fill:#19599c;fill-opacity:1"
       id="g23" /><g
       style="fill:#19599c;fill-opacity:1"
       id="g25" /><g
       style="fill:#19599c;fill-opacity:1"
       id="g27" /><g
       style="fill:#19599c;fill-opacity:1"
       id="g29" /><g
       style="fill:#19599c;fill-opacity:1"
       id="g31" /><g
       style="fill:#19599c;fill-opacity:1"
       id="g33" /><g
       style="fill:#19599c;fill-opacity:1"
       id="g35" /><g
       style="fill:#19599c;fill-opacity:1"
       id="g37" /><g
       style="fill:#19599c;fill-opacity:1"
       id="g39" /><g
       style="fill:#19599c;fill-opacity:1"
       id="g41" /><g
       style="fill:#19599c;fill-opacity:1"
       id="g43" /><g
       style="fill:#19599c;fill-opacity:1"
       id="g45" /><g
       style="fill:#19599c;fill-opacity:1"
       id="g47" /><g
       style="fill:#19599c;fill-opacity:1"
       id="g49" /></g><g
     style="fill:#19599c;fill-opacity:1"
     transform="translate(0,-25.230988)"
     id="g51" /><g
     style="fill:#19599c;fill-opacity:1"
     transform="translate(0,-25.230988)"
     id="g53" /><g
     style="fill:#19599c;fill-opacity:1"
     transform="translate(0,-25.230988)"
     id="g55" /><g
     style="fill:#19599c;fill-opacity:1"
     transform="translate(0,-25.230988)"
     id="g57" /><g
     style="fill:#19599c;fill-opacity:1"
     transform="translate(0,-25.230988)"
     id="g59" /><g
     style="fill:#19599c;fill-opacity:1"
     transform="translate(0,-25.230988)"
     id="g61" /><g
     style="fill:#19599c;fill-opacity:1"
     transform="translate(0,-25.230988)"
     id="g63" /><g
     style="fill:#19599c;fill-opacity:1"
     transform="translate(0,-25.230988)"
     id="g65" /><g
     style="fill:#19599c;fill-opacity:1"
     transform="translate(0,-25.230988)"
     id="g67" /><g
     style="fill:#19599c;fill-opacity:1"
     transform="translate(0,-25.230988)"
     id="g69" /><g
     style="fill:#19599c;fill-opacity:1"
     transform="translate(0,-25.230988)"
     id="g71" /><g
     style="fill:#19599c;fill-opacity:1"
     transform="translate(0,-25.230988)"
     id="g73" /><g
     style="fill:#19599c;fill-opacity:1"
     transform="translate(0,-25.230988)"
     id="g75" /><g
     style="fill:#19599c;fill-opacity:1"
     transform="translate(0,-25.230988)"
     id="g77" /><g
     style="fill:#19599c;fill-opacity:1"
     transform="translate(0,-25.230988)"
     id="g79" /><g
     id="text4215"
     style="font-style:normal;font-variant:normal;font-weight:normal;font-stretch:normal;font-size:50px;line-height:125%;font-family:'Open Sans';-inkscape-font-specification:'Open Sans, Normal';text-align:center;letter-spacing:0px;word-spacing:0px;writing-mode:lr-tb;text-anchor:middle;fill:#19599c;fill-opacity:1;stroke:none;stroke-width:1px;stroke-linecap:butt;stroke-linejoin:miter;stroke-opacity:1"><path
       id="path4220"
       style=""
       d="m 116.87988,437.09546 q 0,4.71191 -3.41797,7.34863 -3.41796,2.63672 -9.27734,2.63672 -6.347656,0 -9.765625,-1.63574 l 0,-4.00391 q 2.197266,0.92774 4.785157,1.46485 2.587888,0.53711 5.126948,0.53711 4.1504,0 6.25,-1.5625 2.09961,-1.58692 2.09961,-4.39454 0,-1.85546 -0.75683,-3.02734 -0.73242,-1.19629 -2.49024,-2.19727 -1.73339,-1.00097 -5.29785,-2.2705 -4.980467,-1.78223 -7.128904,-4.22364 -2.124024,-2.4414 -2.124024,-6.37207 0,-4.12597 3.100586,-6.56738 3.100582,-2.44141 8.203122,-2.44141 5.32227,0 9.79004,1.95313 l -1.29394,3.61328 q -4.41895,-1.85547 -8.59375,-1.85547 -3.2959,0 -5.15137,1.41602 -1.855469,1.41601 -1.855469,3.93066 0,1.85547 0.683594,3.05176 0.683595,1.17187 2.294925,2.17285 1.63574,0.97656 4.98047,2.17285 5.61523,2.00196 7.71484,4.29688 2.12402,2.29492 2.12402,5.95703 z" /><path
       id="path4222"
       style=""
       d="m 132.21191,443.73608 q 1.07422,0 2.0752,-0.14648 1.00098,-0.1709 1.58691,-0.3418 l 0,3.10059 q -0.65918,0.31738 -1.95312,0.51269 -1.26953,0.21973 -2.29492,0.21973 -7.76368,0 -7.76368,-8.17871 l 0,-15.91797 -3.833,0 0,-1.95312 3.833,-1.68457 1.70899,-5.7129 2.34375,0 0,6.20118 7.76367,0 0,3.14941 -7.76367,0 0,15.74707 q 0,2.41699 1.14746,3.71094 1.14746,1.29394 3.14941,1.29394 z" /><path
       id="path4224"
       style=""
       d="m 145.05371,419.83472 0,17.3584 q 0,3.27148 1.48926,4.88281 1.48926,1.61133 4.66308,1.61133 4.19922,0 6.12793,-2.29493 1.95313,-2.29492 1.95313,-7.49511 l 0,-14.0625 4.05273,0 0,26.75781 -3.34472,0 -0.58594,-3.58887 -0.21973,0 q -1.24511,1.97754 -3.46679,3.02735 -2.19727,1.0498 -5.0293,1.0498 -4.88281,0 -7.32422,-2.31934 -2.41699,-2.31933 -2.41699,-7.42187 l 0,-17.50488 4.10156,0 z" /><path
       id="path4226"
       style=""
       d="m 190.21973,446.59253 0,-17.30957 q 0,-3.27149 -1.48926,-4.88281 -1.48926,-1.61133 -4.66309,-1.61133 -4.19922,0 -6.15234,2.27051 -1.95313,2.2705 -1.95313,7.49511 l 0,14.03809 -4.05273,0 0,-26.75781 3.2959,0 0.65918,3.66211 0.19531,0 q 1.24512,-1.97754 3.49121,-3.05176 2.24609,-1.09863 5.00488,-1.09863 4.83399,0 7.27539,2.34375 2.44141,2.31933 2.44141,7.44628 l 0,17.45606 -4.05273,0 z" /><path
       id="path4228"
       style=""
       d="m 220.78613,443.00366 -0.21972,0 q -2.80762,4.07715 -8.39844,4.07715 -5.24902,0 -8.17871,-3.58887 -2.90528,-3.58886 -2.90528,-10.20507 0,-6.61622 2.92969,-10.27833 2.92969,-3.6621 8.1543,-3.6621 5.44433,0 8.34961,3.95507 l 0.31738,0 -0.1709,-1.92871 -0.0977,-1.87988 0,-10.88867 4.05273,0 0,37.98828 -3.2959,0 -0.53711,-3.58887 z m -8.10547,0.6836 q 4.15039,0 6.00586,-2.2461 1.87989,-2.27051 1.87989,-7.2998 l 0,-0.85449 q 0,-5.68848 -1.9043,-8.10547 -1.87988,-2.44141 -6.03027,-2.44141 -3.56446,0 -5.46875,2.7832 -1.87989,2.75879 -1.87989,7.8125 0,5.12696 1.87989,7.73926 1.87988,2.61231 5.51757,2.61231 z" /><path
       id="path4230"
       style=""
       d="m 244.54102,447.08081 q -5.93262,0 -9.375,-3.61328 -3.41797,-3.61328 -3.41797,-10.03418 0,-6.46973 3.17382,-10.27832 3.19825,-3.80859 8.56934,-3.80859 5.0293,0 7.95899,3.32031 2.92968,3.2959 2.92968,8.71582 l 0,2.56347 -18.43261,0 q 0.12207,4.71192 2.36816,7.15333 2.27051,2.4414 6.37207,2.4414 4.32129,0 8.54492,-1.80664 l 0,3.61328 q -2.14844,0.92774 -4.07715,1.31836 -1.90429,0.41504 -4.61425,0.41504 z m -1.09864,-24.34082 q -3.22265,0 -5.15136,2.09961 -1.9043,2.09961 -2.2461,5.81055 l 13.98926,0 q 0,-3.83301 -1.70898,-5.85938 -1.70899,-2.05078 -4.88282,-2.05078 z" /><path
       id="path4232"
       style=""
       d="m 279.67285,446.59253 0,-17.30957 q 0,-3.27149 -1.48926,-4.88281 -1.48925,-1.61133 -4.66308,-1.61133 -4.19922,0 -6.15235,2.27051 -1.95312,2.2705 -1.95312,7.49511 l 0,14.03809 -4.05274,0 0,-26.75781 3.2959,0 0.65918,3.66211 0.19532,0 q 1.24511,-1.97754 3.49121,-3.05176 2.24609,-1.09863 5.00488,-1.09863 4.83398,0 7.27539,2.34375 2.44141,2.31933 2.44141,7.44628 l 0,17.45606 -4.05274,0 z" /><path
       id="path4234"
       style=""
       d="m 304.47754,447.08081 q -2.61231,0 -4.78516,-0.95215 -2.14843,-0.97656 -3.61328,-2.97851 l -0.29297,0 q 0.29297,2.34375 0.29297,4.44336 l 0,11.01074 -4.05273,0 0,-38.76953 3.2959,0 0.56152,3.66211 0.19531,0 q 1.5625,-2.19727 3.6377,-3.17383 2.07519,-0.97656 4.76074,-0.97656 5.32226,0 8.20312,3.63769 2.90528,3.6377 2.90528,10.20508 0,6.5918 -2.9541,10.25391 -2.92969,3.63769 -8.1543,3.63769 z m -0.58594,-24.29199 q -4.10156,0 -5.93262,2.27051 -1.83105,2.2705 -1.87988,7.22656 l 0,0.90332 q 0,5.63965 1.87988,8.08105 1.87989,2.417 6.03028,2.417 3.46679,0 5.41992,-2.80762 1.97754,-2.80762 1.97754,-7.73926 0,-5.00488 -1.97754,-7.66601 -1.95313,-2.68555 -5.51758,-2.68555 z" /><path
       id="path4236"
       style=""
       d="m 326.74316,446.59253 -4.05273,0 0,-37.98828 4.05273,0 0,37.98828 z" /><path
       id="path4238"
       style=""
       d="m 351.84082,446.59253 -0.80566,-3.80859 -0.19532,0 q -2.00195,2.51464 -4.0039,3.41796 -1.97754,0.87891 -4.95606,0.87891 -3.97949,0 -6.25,-2.05078 -2.24609,-2.05078 -2.24609,-5.83496 0,-8.10547 12.96387,-8.4961 l 4.54101,-0.14648 0,-1.66016 q 0,-3.14941 -1.36719,-4.63867 -1.34277,-1.51367 -4.32128,-1.51367 -3.34473,0 -7.56836,2.05078 l -1.24512,-3.10058 q 1.97754,-1.07422 4.32129,-1.68457 2.36816,-0.61036 4.73633,-0.61036 4.78515,0 7.08007,2.12403 2.31934,2.12402 2.31934,6.81152 l 0,18.26172 -3.00293,0 z m -9.15527,-2.85645 q 3.78418,0 5.93261,-2.07519 2.17286,-2.0752 2.17286,-5.81055 l 0,-2.41699 -4.05274,0.1709 q -4.83398,0.1709 -6.98242,1.51367 -2.12402,1.31836 -2.12402,4.12598 0,2.19726 1.31836,3.34472 1.34277,1.14746 3.73535,1.14746 z" /><path
       id="path4240"
       style=""
       d="m 381.52832,446.59253 0,-17.30957 q 0,-3.27149 -1.48926,-4.88281 -1.48926,-1.61133 -4.66308,-1.61133 -4.19922,0 -6.15235,2.27051 -1.95312,2.2705 -1.95312,7.49511 l 0,14.03809 -4.05274,0 0,-26.75781 3.2959,0 0.65918,3.66211 0.19531,0 q 1.24512,-1.97754 3.49121,-3.05176 2.2461,-1.09863 5.00489,-1.09863 4.83398,0 7.27539,2.34375 2.4414,2.31933 2.4414,7.44628 l 0,17.45606 -4.05273,0 z" /></g></svg>